# xmcd
#
# Track frame offsets:
#	150
#	16621
#	31559
#	46181
#	66266
#
# Disc length: 1080 seconds
#
# Revision: 0
# Processed by: cddbd v1.5.2PL0 Copyright (c) Steve Scherf et al.
# Submitted via: dBpowerAMP V4.0
#
DISCID=2c043605
DTITLE=Cat Southern - Last First Kiss
DYEAR=1900
DGENRE=Country
TTITLE0=Last First Kiss
TTITLE1=Skin Deep
TTITLE2=Memories and Dreams
TTITLE3=Big Girl Now
TTITLE4=That's The Kinda Man I'm Looking For
EXTD=
EXTT0=
EXTT1=
EXTT2=
EXTT3=
EXTT4=
PLAYORDER=
